# xmcd
#
# Track frame offsets:
#	150
#	15735
#	28325
#	43630
#	57460
#	69627
#	84937
#	96567
#	111925
#	122120
#	137825
#	148102
#
# Disc length: 2143 seconds
#
# Revision: 0
# Processed by: cddbd v1.5.1PL0 Copyright (c) Steve Scherf et al.
# Submitted via: dBpowerAMP V4.0
#
DISCID=b4085d0c
DTITLE=Jaco e Jacozinho - Músicas Raízes
DYEAR=1900
DGENRE=Sertanejo
TTITLE0=SOM RURAL
TTITLE1=A MODA DO GENRO
TTITLE2=MÃE CEGA
TTITLE3=A VOLTA DO GENRO
TTITLE4=SACO DE OURO
TTITLE5=NELORE VALENTE
TTITLE6=O SONHO DOS DIREITOS AUTORAIS
TTITLE7=PEÃO E RICAÇO
TTITLE8=PAPO DO CORDÃO
TTITLE9=PEÃO DA CIDADE
TTITLE10=PEPINO
TTITLE11=A FORMIGUINHA
EXTD=Jacozinho acha que é o melhor trabalho da sua carreira
EXTT0=
EXTT1=
EXTT2=
EXTT3=
EXTT4=
EXTT5=
EXTT6=
EXTT7=
EXTT8=
EXTT9=
EXTT10=
EXTT11=
PLAYORDER=
